<?xml version="1.0" encoding="iso-8859-1"?>
<!-- Generator: Adobe Illustrator 19.0.0, SVG Export Plug-In . SVG Version: 6.00 Build 0)  -->
<svg version="1.1" id="Capa_1" xmlns="http://www.w3.org/2000/svg" xmlns:xlink="http://www.w3.org/1999/xlink" x="0px" y="0px"
	 viewBox="0 0 512 512" style="enable-background:new 0 0 512 512;" xml:space="preserve">
<circle style="fill:#FBD747;" cx="256" cy="256" r="256"/>
<path style="fill:#E9BA13;" d="M70.021,212.903L112.491,354l171.914,156.423C412.42,496.289,512,387.782,512,256
	c0-11.579-0.783-22.974-2.272-34.146l-85.784-85.784l-3.162,21.36l-21.36-21.36l-1.639,22.883L374.9,136.07l3.168,17.414
	L305.25,80.667l-7.765,25.069l-25.069-25.069l17.038,49.871l-49.871-49.871l-4.755,28.078L206.75,80.667l22.048,63.684
	l-6.637,39.188l39.368,38.286l-3.758,12.132l-97.887-97.887l-5.469,19.054l-19.054-19.054l3.024,27.547l-27.547-27.547
	l18.204,42.727L86.316,136.07l10.22,75.563l32.484,31.972l-3.685,24.611L70.021,212.903z"/>
<rect x="246.33" y="165.67" style="fill:#39B54A;" width="19.333" height="203.33"/>
<rect x="255.57" y="165.67" style="fill:#009245;" width="10.1" height="203.33"/>
<path style="fill:#006837;" d="M256.065,432.167L256.065,432.167L256.065,432.167c-6.995-76.254,24.794-187.568,71.003-248.628l0,0
	l0,0C334.063,259.793,302.274,371.107,256.065,432.167z"/>
<path style="fill:#009245;" d="M255.935,432.167L255.935,432.167L255.935,432.167c6.995-76.254-24.794-187.568-71.003-248.628l0,0
	l0,0C177.937,259.793,209.726,371.107,255.935,432.167z"/>
<path style="fill:#FE5722;" d="M256.625,196.667h-1.25c-26.855,0-48.625-21.77-48.625-48.625V80.667l16.417,20l16.417-20l16.417,20
	l16.417-20l16.417,20l16.417-20v67.375C305.25,174.897,283.48,196.667,256.625,196.667z"/>
<path style="fill:#F3511E;" d="M255.571,196.667h1.054c26.855,0,48.625-21.77,48.625-48.625V80.667l-16.417,20l-16.417-20
	l-16.417,20L255.571,196.667z"/>
<rect x="115.88" y="209.55" style="fill:#39B54A;" width="14.44" height="151.87"/>
<rect x="122.24" y="209.55" style="fill:#009245;" width="8.08" height="151.87"/>
<path style="fill:#006837;" d="M123.149,398.597L123.149,398.597L123.149,398.597c-5.225-56.952,18.518-140.09,53.03-185.694l0,0
	l0,0C181.404,269.855,157.661,352.993,123.149,398.597z"/>
<path style="fill:#009245;" d="M123.051,398.597L123.051,398.597L123.051,398.597c5.225-56.952-18.518-140.09-53.03-185.694l0,0l0,0
	C64.797,269.855,88.539,352.993,123.051,398.597z"/>
<path style="fill:#FE6E40;" d="M123.567,222.707h-0.934c-20.057,0-36.317-16.26-36.317-36.317v-50.32l12.261,14.938l12.261-14.938
	l12.261,14.938l12.261-14.938l12.261,14.938l12.261-14.938v50.321C159.884,206.448,143.624,222.707,123.567,222.707z"/>
<path style="fill:#FE5722;" d="M122.238,222.698c0.132,0.001,0.263,0.01,0.395,0.01h0.934c20.057,0,36.317-16.26,36.317-36.317
	V136.07l-12.261,14.938l-12.261-14.938L123.1,151.007L122.238,222.698z"/>
<rect x="379.94" y="209.55" style="fill:#39B54A;" width="14.44" height="151.87"/>
<rect x="387.12" y="209.55" style="fill:#009245;" width="7.261" height="151.87"/>
<path style="fill:#006837;" d="M387.209,398.597L387.209,398.597L387.209,398.597c-5.225-56.952,18.518-140.09,53.03-185.694l0,0
	l0,0C445.464,269.855,421.721,352.993,387.209,398.597z"/>
<path style="fill:#009245;" d="M387.111,398.597L387.111,398.597L387.111,398.597c5.225-56.952-18.518-140.09-53.03-185.694l0,0l0,0
	C328.856,269.855,352.599,352.993,387.111,398.597z"/>
<path style="fill:#FE6E40;" d="M387.627,222.707h-0.934c-20.057,0-36.317-16.26-36.317-36.317v-50.32l12.261,14.938l12.261-14.938
	l12.261,14.938l12.261-14.938l12.261,14.938l12.261-14.938v50.321C423.944,206.448,407.684,222.707,387.627,222.707z"/>
<path style="fill:#FE5722;" d="M387.119,222.708h0.508c20.057,0,36.317-16.26,36.317-36.317V136.07l-12.261,14.938l-12.261-14.938
	l-12.261,14.938L387.119,222.708z"/>
<path style="fill:#795548;" d="M18.764,352.333C56.826,445.971,148.694,512,256,512s199.174-66.029,237.236-159.667H18.764z"/>
<path style="fill:#6D4C41;" d="M255.571,352.333v159.663c0.143,0,0.285,0.004,0.429,0.004c107.306,0,199.174-66.029,237.236-159.667
	H255.571z"/>
<g>
</g>
<g>
</g>
<g>
</g>
<g>
</g>
<g>
</g>
<g>
</g>
<g>
</g>
<g>
</g>
<g>
</g>
<g>
</g>
<g>
</g>
<g>
</g>
<g>
</g>
<g>
</g>
<g>
</g>
</svg>
