<svg
    xmlns='http://www.w3.org/2000/svg'
    data-background-color='#F7F7F7'
    width='500'
    height='500'
    viewBox='0 0 562.16 351.52'
>
    <path id="SvgjsPath1082" d="M200.063744 -77H215.674624V-56.35488H200.063616ZM169.546112 -62.357824H191.023232V-77H146.485376V-35.209792H161.045376V-62.357824H168.80064ZM200.26176 -13H215.674624V-49.128896H200.26176V-23.060160000000003ZM146.485376 -13H194.18355200000002V-28.485440000000004H146.485376Z " fill="#222222" transform="matrix(1,0,0,1,100,177)"></path><path id="SvgjsPath1083" d="M32.260000000000005 55.15L32.260000000000005 55.15Q25.63 55.15 23.47 50.54L23.47 50.54Q19.73 55.22 13.86 55.22Q7.99 55.22 4 51.26Q0 47.3 0 40.82L0 40.82Q0 31.39 5.54 25.77Q11.09 20.159999999999997 19.58 20.159999999999997L19.58 20.159999999999997Q19.8 20.159999999999997 20.02 20.159999999999997L20.02 20.159999999999997Q23.62 20.159999999999997 26.64 21.380000000000003L26.64 21.380000000000003Q28.58 20.159999999999997 31.360000000000003 20.159999999999997Q34.129999999999995 20.159999999999997 35.349999999999994 20.880000000000003L35.349999999999994 20.880000000000003Q34.7 26.21 33.980000000000004 31.349999999999998Q33.260000000000005 36.5 32.980000000000004 38.66L32.980000000000004 38.66Q32.33 43.56 32.33 45.72L32.33 45.72Q32.33 48.6 34.629999999999995 48.6L34.629999999999995 48.6Q36.43000000000001 48.6 38.45 46.19Q40.459999999999994 43.769999999999996 41.980000000000004 38.59L41.980000000000004 38.59Q44.06 40.46 44.86 42.769999999999996L44.86 42.769999999999996Q42.769999999999996 49.61 39.239999999999995 52.379999999999995Q35.709999999999994 55.15 32.260000000000005 55.15ZM20.66 25.77L20.66 25.77Q16.06 25.77 13.36 29.27Q10.66 32.76 10.15 39.67L10.15 39.67Q10.08 40.32 10.08 40.89L10.08 40.89Q10.08 44.42 11.77 46.51Q13.459999999999999 48.6 16.13 48.6L16.13 48.6Q20.66 48.6 22.97 42.19L22.97 42.19L24.7 26.64Q22.61 25.77 20.66 25.77ZM66.10000000000001 32.76L66.10000000000001 32.76Q71.78 36.93 71.78 42.62Q71.78 48.31 67.32000000000001 51.769999999999996Q62.86 55.22 56.09 55.22L56.09 55.22Q51.7 55.22 48.78 53.03Q45.86 50.83 45.86 47.589999999999996Q45.86 44.35 48.019999999999996 42.44Q50.18000000000001 40.53 53.42 40.1L53.42 40.1Q51.91 42.26 51.91 44.239999999999995Q51.91 46.22 53.28 47.45L53.28 47.45Q54.650000000000006 48.67 56.739999999999995 48.67Q58.81999999999999 48.67 60.19 47.12Q61.56 45.57 61.56 43.56L61.56 43.56Q61.56 40.25 58.459999999999994 37.65L58.459999999999994 37.65Q56.59 36.14 54.43000000000001 34.81Q52.269999999999996 33.480000000000004 52.129999999999995 33.41L52.129999999999995 33.41Q51.84 33.19 51.55 33.05L51.55 33.05Q50.260000000000005 34.56 47.81 37.19Q45.36 39.81 43.92 41.4L43.92 41.4Q39.89 45.79 39.379999999999995 48.74L39.379999999999995 48.74Q39.239999999999995 49.32 39.239999999999995 50.94Q39.239999999999995 52.56 40.209999999999994 54.29Q41.18000000000001 56.01 42.55 56.879999999999995Q43.92 57.74 45.25 58.28Q46.58 58.82 47.56 59.04Q48.53 59.25 48.53 59.33L48.53 59.33Q48.53 59.83 46.94 60.48L46.94 60.48Q43.989999999999995 61.56 40.790000000000006 61.56Q37.58 61.56 34.56 59.25L34.56 59.25Q30.459999999999997 56.089999999999996 30.459999999999997 50.83L30.459999999999997 50.83Q30.459999999999997 47.589999999999996 32.11 44.42L32.11 44.42Q35.06 38.81 45.94 29.009999999999998L45.94 29.009999999999998Q43.269999999999996 26.349999999999998 43.269999999999996 23.33Q43.269999999999996 20.299999999999997 45.540000000000006 18.21Q47.81 16.130000000000003 50.900000000000006 16.130000000000003L50.900000000000006 16.130000000000003Q53.709999999999994 16.130000000000003 55.8 18.36L55.8 18.36Q57.17 19.869999999999997 57.17 22.17Q57.17 24.48 55.66 27.36L55.66 27.36Q63.36 30.81 66.10000000000001 32.76ZM50.47 24.619999999999997L50.47 24.619999999999997Q52.2 22.82 52.2 22.03L52.2 22.03Q52.2 20.229999999999997 50.620000000000005 20.089999999999996L50.620000000000005 20.089999999999996Q48.81999999999999 20.089999999999996 48.81999999999999 22.1L48.81999999999999 22.1Q48.81999999999999 23.33 50.47 24.619999999999997ZM89.21000000000001 46.58L89.21000000000001 46.58L90.94 30.669999999999998Q90.94 28.73 89.93 27.43Q88.92 26.13 86.69 26.13Q84.46000000000001 26.13 82.91 27.9Q81.36 29.66 80.64 32.54L80.64 32.54Q80.14 36.65 79.13000000000001 44.53Q78.12 52.41 77.83 54.79L77.83 54.79L68.26 54.79Q73.44 10.649999999999999 74.52000000000001 0.5700000000000003L74.52000000000001 0.5700000000000003Q76.03 0 78.62 0L78.62 0Q84.24000000000001 0 84.24000000000001 3.3100000000000023L84.24000000000001 3.3100000000000023L84.24000000000001 3.740000000000002Q83.02000000000001 15.049999999999997 81.65 23.61L81.65 23.61Q85.46000000000001 20.159999999999997 90.29 20.159999999999997Q95.11 20.159999999999997 97.92 22.61Q100.73 25.05 100.73 28.8L100.73 28.8Q100.73 29.81 100.3 32.54L100.3 32.54Q98.64 43.34 98.64 45.21L98.64 45.21Q98.64 48.6 100.87 48.6L100.87 48.6Q102.74000000000001 48.6 104.87 46.11Q106.99000000000001 43.629999999999995 108.29 38.45L108.29 38.45Q110.74000000000001 41.04 111.24000000000001 42.55L111.24000000000001 42.55Q107.5 55.08 97.99000000000001 55.08L97.99000000000001 55.08Q93.53 55.08 91.37 52.339999999999996Q89.21000000000001 49.61 89.21000000000001 46.58ZM118.01 4.68L118.01 4.68Q118.01 5.109999999999999 116.06 20.159999999999997L116.06 20.159999999999997L126.65 20.159999999999997L126.65 25.7L115.34 25.7L115.13000000000001 27.5Q123.55 34.56 123.55 42.91L123.55 42.91Q123.55 49.46 120.2 52.339999999999996Q116.86 55.22 112.18 55.22Q107.5 55.22 105.34 52.74Q103.18 50.25 103.18 46.73L103.18 46.73Q103.18 45.93 103.32000000000001 45L103.32000000000001 45L105.55 25.849999999999998L105.26 25.7L99.43 25.7Q99.36 24.98 99.36 23.36Q99.36 21.740000000000002 100.01 20.159999999999997L100.01 20.159999999999997L106.2 20.159999999999997L108.5 0.5700000000000003Q110.02000000000001 0 112.54 0L112.54 0Q118.01 0 118.01 4.68ZM118.73 42.84L118.73 42.84Q118.73 37.87 114.41 33.05L114.41 33.05Q113.11 43.769999999999996 113.11 45.43L113.11 45.43Q113.11 48.67 115.2 48.67L115.2 48.67Q116.71000000000001 48.67 117.72 47.269999999999996Q118.73 45.86 118.73 42.84ZM141.77 20.159999999999997L141.77 20.159999999999997Q148.39000000000001 20.159999999999997 152.82 24.41Q157.25 28.65 157.25 34.769999999999996L157.25 34.769999999999996Q157.25 44.06 151.81 49.64Q146.38 55.22 138.67000000000002 55.22Q130.97 55.22 126.47 50.83Q121.97 46.44 121.97 39.96L121.97 39.96Q121.97 30.89 127.50999999999999 25.56L127.50999999999999 25.56Q133.13 20.159999999999997 141.77 20.159999999999997ZM140.36 25.99Q136.94 25.99 134.64000000000001 29.88Q132.34 33.769999999999996 132.12 39.67L132.12 39.67Q132.12 43.85 133.81 46.58Q135.5 49.32 138.96 49.32Q142.42000000000002 49.32 144.76 45.5Q147.1 41.69 147.1 36.79Q147.1 31.89 145.44 29.009999999999998L145.44 29.009999999999998Q143.78 25.99 140.36 25.99ZM177.26 46.73L177.26 46.73L178.99 30.669999999999998Q178.99 28.73 177.98 27.43Q176.98 26.13 174.64000000000001 26.13Q172.3 26.13 170.68 28.189999999999998Q169.06 30.24 168.62 33.33L168.62 33.33Q166.03 53.06 165.89000000000001 54.79L165.89000000000001 54.79L156.17000000000002 54.79L160.13 20.880000000000003Q163.15 20.089999999999996 164.74 20.089999999999996L164.74 20.089999999999996Q169.56 20.089999999999996 169.78 23.61L169.78 23.61Q173.3 20.159999999999997 178.24 20.159999999999997Q183.17000000000002 20.159999999999997 185.98 22.61Q188.78 25.05 188.78 28.8L188.78 28.8Q188.78 29.81 188.35 32.61L188.35 32.61Q186.70000000000002 43.56 186.70000000000002 45.36L186.70000000000002 45.36Q186.70000000000002 48.67 188.93 48.67L188.93 48.67Q193.82 48.67 196.34 38.45L196.34 38.45Q198.79 41.04 199.3 42.55L199.3 42.55Q195.48 55.22 186.05 55.22L186.05 55.22Q181.58 55.22 179.42000000000002 52.49Q177.26 49.75 177.26 46.73ZM232.78 32.76L232.78 32.76Q238.46 36.93 238.46 42.62Q238.46 48.31 234 51.769999999999996Q229.54 55.22 222.77 55.22L222.77 55.22Q218.38 55.22 215.46 53.03Q212.54 50.83 212.54 47.589999999999996Q212.54 44.35 214.70000000000002 42.44Q216.86 40.53 220.1 40.1L220.1 40.1Q218.59 42.26 218.59 44.239999999999995Q218.59 46.22 219.96 47.45L219.96 47.45Q221.33 48.67 223.42000000000002 48.67Q225.5 48.67 226.87 47.12Q228.24 45.57 228.24 43.56L228.24 43.56Q228.24 40.25 225.14000000000001 37.65L225.14000000000001 37.65Q223.27 36.14 221.11 34.81Q218.95000000000002 33.480000000000004 218.81 33.41L218.81 33.41Q218.52 33.19 218.23 33.05L218.23 33.05Q216.94 34.56 214.49 37.19Q212.04 39.81 210.6 41.4L210.6 41.4Q206.57 45.79 206.06 48.74L206.06 48.74Q205.92000000000002 49.32 205.92000000000002 50.94Q205.92000000000002 52.56 206.89000000000001 54.29Q207.86 56.01 209.23 56.879999999999995Q210.6 57.74 211.93 58.28Q213.26 58.82 214.24 59.04Q215.21 59.25 215.21 59.33L215.21 59.33Q215.21 59.83 213.62 60.48L213.62 60.48Q210.67000000000002 61.56 207.47 61.56Q204.26 61.56 201.24 59.25L201.24 59.25Q197.14000000000001 56.089999999999996 197.14000000000001 50.83L197.14000000000001 50.83Q197.14000000000001 47.589999999999996 198.79 44.42L198.79 44.42Q201.74 38.81 212.62 29.009999999999998L212.62 29.009999999999998Q209.95000000000002 26.349999999999998 209.95000000000002 23.33Q209.95000000000002 20.299999999999997 212.22 18.21Q214.49 16.130000000000003 217.58 16.130000000000003L217.58 16.130000000000003Q220.39000000000001 16.130000000000003 222.48 18.36L222.48 18.36Q223.85 19.869999999999997 223.85 22.17Q223.85 24.48 222.34 27.36L222.34 27.36Q230.04 30.81 232.78 32.76ZM217.15 24.619999999999997L217.15 24.619999999999997Q218.88 22.82 218.88 22.03L218.88 22.03Q218.88 20.229999999999997 217.3 20.089999999999996L217.3 20.089999999999996Q215.5 20.089999999999996 215.5 22.1L215.5 22.1Q215.5 23.33 217.15 24.619999999999997ZM244.15 20.089999999999996L244.15 20.089999999999996Q248.83 20.089999999999996 249.62 22.46L249.62 22.46Q253.01 20.089999999999996 258.19 20.089999999999996Q263.38 20.089999999999996 267.11999999999995 24.33Q270.85999999999996 28.58 270.85999999999996 34.269999999999996L270.85999999999996 34.269999999999996Q270.85999999999996 35.06 270.78999999999996 35.93L270.78999999999996 35.93Q270 45.36 264.46 50.29Q258.90999999999997 55.22 249.98 55.22L249.98 55.22Q247.97 55.22 245.59 54.72L245.59 54.72L243.29 74.52L233.86 74.52Q238.46 34.849999999999994 240.05 20.659999999999997L240.05 20.659999999999997Q241.56 20.089999999999996 244.15 20.089999999999996ZM260.71 34.769999999999996L260.71 34.769999999999996Q260.71 31.61 259.27 29.16Q257.83 26.71 254.81000000000003 26.71L254.81000000000003 26.71Q250.70000000000002 26.71 248.54 32.04L248.54 32.04Q247.1 42.69 246.89000000000001 44.42L246.89000000000001 44.42Q246.82 46.58 248.26 47.66Q249.70000000000002 48.74 251.78 48.74L251.78 48.74Q255.46 48.74 257.83 45.43L257.83 45.43Q260.71 41.33 260.71 34.769999999999996ZM276.19 1.759999999999998Q277.84999999999997 0.07000000000000028 280.21999999999997 0.07000000000000028Q282.59999999999997 0.07000000000000028 284.28999999999996 1.759999999999998Q285.97999999999996 3.4499999999999957 285.97999999999996 5.829999999999998Q285.97999999999996 8.21 284.28999999999996 9.86Q282.59999999999997 11.519999999999996 280.21999999999997 11.519999999999996Q277.84999999999997 11.519999999999996 276.19 9.86Q274.53999999999996 8.21 274.53999999999996 5.829999999999998Q274.53999999999996 3.4499999999999957 276.19 1.759999999999998ZM273.23999999999995 22.89Q273.96 21.6 275.97999999999996 20.909999999999997Q277.98999999999995 20.229999999999997 279.96999999999997 20.229999999999997Q281.95 20.229999999999997 283.46 20.729999999999997L283.46 20.729999999999997Q280.65999999999997 42.41 280.65999999999997 42.62L280.65999999999997 42.62Q280.29999999999995 44.06 280.29999999999995 45.03Q280.29999999999995 46.01 280.44 46.73L280.44 46.73Q280.72999999999996 48.6 283.07 48.6Q285.40999999999997 48.6 287.39 45.54Q289.36999999999995 42.48 290.38 38.59L290.38 38.59Q290.88 38.879999999999995 291.96 40.32Q293.03999999999996 41.76 293.26 42.48L293.26 42.48Q291.82 48.24 288.35999999999996 51.769999999999996L288.35999999999996 51.769999999999996Q284.9 55.29 280.08 55.29Q275.26 55.29 272.91999999999996 52.92Q270.58 50.54 270.58 46.8L270.58 46.8Q270.58 46.01 270.65 45.14L270.65 45.14L273.23999999999995 22.89ZM304.27 46.73L304.27 46.73L306 30.669999999999998Q306 28.73 304.98999999999995 27.43Q303.97999999999996 26.13 301.64 26.13Q299.29999999999995 26.13 297.67999999999995 28.189999999999998Q296.06 30.24 295.63 33.33L295.63 33.33Q293.03999999999996 53.06 292.9 54.79L292.9 54.79L283.17999999999995 54.79L287.14 20.880000000000003Q290.15999999999997 20.089999999999996 291.73999999999995 20.089999999999996L291.73999999999995 20.089999999999996Q296.57 20.089999999999996 296.78 23.61L296.78 23.61Q300.31 20.159999999999997 305.23999999999995 20.159999999999997Q310.17999999999995 20.159999999999997 312.97999999999996 22.61Q315.78999999999996 25.05 315.78999999999996 28.8L315.78999999999996 28.8Q315.78999999999996 29.81 315.35999999999996 32.61L315.35999999999996 32.61Q313.7 43.56 313.7 45.36L313.7 45.36Q313.7 48.67 315.94 48.67L315.94 48.67Q320.83 48.67 323.34999999999997 38.45L323.34999999999997 38.45Q325.79999999999995 41.04 326.29999999999995 42.55L326.29999999999995 42.55Q322.48999999999995 55.22 313.06 55.22L313.06 55.22Q308.59 55.22 306.42999999999995 52.49Q304.27 49.75 304.27 46.73ZM349.56 55.15L349.56 55.15Q342.94 55.15 340.78 50.54L340.78 50.54Q337.03 55.22 331.15999999999997 55.22Q325.29999999999995 55.22 321.29999999999995 51.26Q317.29999999999995 47.3 317.29999999999995 40.82L317.29999999999995 40.82Q317.29999999999995 31.39 322.84999999999997 25.77Q328.39 20.159999999999997 336.89 20.159999999999997L336.89 20.159999999999997Q337.09999999999997 20.159999999999997 337.32 20.159999999999997L337.32 20.159999999999997Q340.91999999999996 20.159999999999997 343.94 21.380000000000003L343.94 21.380000000000003Q345.89 20.159999999999997 348.65999999999997 20.159999999999997Q351.42999999999995 20.159999999999997 352.65999999999997 20.880000000000003L352.65999999999997 20.880000000000003Q352.01 26.21 351.28999999999996 31.349999999999998Q350.57 36.5 350.28 38.66L350.28 38.66Q349.63 43.56 349.63 45.72L349.63 45.72Q349.63 48.6 351.94 48.6L351.94 48.6Q353.73999999999995 48.6 355.75 46.19Q357.77 43.769999999999996 359.28 38.59L359.28 38.59Q361.36999999999995 40.46 362.15999999999997 42.769999999999996L362.15999999999997 42.769999999999996Q360.07 49.61 356.53999999999996 52.379999999999995Q353.02 55.15 349.56 55.15ZM337.96999999999997 25.77L337.96999999999997 25.77Q333.35999999999996 25.77 330.65999999999997 29.27Q327.96 32.76 327.46 39.67L327.46 39.67Q327.38 40.32 327.38 40.89L327.38 40.89Q327.38 44.42 329.08 46.51Q330.77 48.6 333.42999999999995 48.6L333.42999999999995 48.6Q337.96999999999997 48.6 340.27 42.19L340.27 42.19L342 26.64Q339.90999999999997 25.77 337.96999999999997 25.77Z " fill="#222222" transform="matrix(1,0,0,1,100,177)"></path>
</svg>