<svg xmlns="http://www.w3.org/2000/svg" version="1.1" xmlns:xlink="http://www.w3.org/1999/xlink" xmlns:svgjs="http://svgjs.com/svgjs" width="500" height="500" id="logo"><defs id="SvgjsDefs1200"></defs><rect id="SvgjsRect1203" width="500" height="500" fill="none"></rect><g id="SvgjsG1204" transform="matrix(0.8585164835164834,0,0,0.8585164835164834,100.00000000000003,261.0408653846154)"><path id="SvgjsPath1201" d="M25.67 0L19.41 0L19.41 0Q16.41 0 13.77-1.14L13.77-1.14L13.77-1.14Q11.14-2.27 9.16-4.25L9.16-4.25L9.16-4.25Q7.17-6.24 6.04-8.87L6.04-8.87L6.04-8.87Q4.90-11.50 4.90-14.50L4.90-14.50L4.90-24.13L0.88-24.13L0.88-32.36L4.90-32.36L4.90-45.32L13.14-45.32L13.14-32.36L25.67-32.36L25.67-24.13L13.14-24.13L13.14-14.50L13.14-14.50Q13.14-13.20 13.62-12.06L13.62-12.06L13.62-12.06Q14.11-10.93 14.96-10.08L14.96-10.08L14.96-10.08Q15.80-9.23 16.95-8.73L16.95-8.73L16.95-8.73Q18.10-8.23 19.41-8.23L19.41-8.23L25.67-8.23L25.67 0ZM38.57-17.86L38.57 0L30.30 0L30.30-32.42L32.30-32.42L35.03-28.58L35.03-28.58Q37.02-30.39 39.57-31.38L39.57-31.38L39.57-31.38Q42.11-32.36 44.83-32.36L44.83-32.36L52.13-32.36L52.13-24.13L44.83-24.13L44.83-24.13Q43.53-24.13 42.38-23.64L42.38-23.64L42.38-23.64Q41.23-23.16 40.38-22.31L40.38-22.31L40.38-22.31Q39.54-21.46 39.05-20.31L39.05-20.31L39.05-20.31Q38.57-19.16 38.57-17.86L38.57-17.86ZM86.76-32.36L86.76 0L84.77 0L81.56-4.45L81.56-4.45Q80.38-3.39 79.06-2.47L79.06-2.47L79.06-2.47Q77.74-1.54 76.29-0.86L76.29-0.86L76.29-0.86Q74.84-0.18 73.31 0.21L73.31 0.21L73.31 0.21Q71.78 0.61 70.20 0.61L70.20 0.61L70.20 0.61Q66.78 0.61 63.77-0.54L63.77-0.54L63.77-0.54Q60.76-1.70 58.50-3.89L58.50-3.89L58.50-3.89Q56.25-6.08 54.95-9.26L54.95-9.26L54.95-9.26Q53.64-12.44 53.64-16.50L53.64-16.50L53.64-16.50Q53.64-20.28 54.95-23.45L54.95-23.45L54.95-23.45Q56.25-26.61 58.50-28.88L58.50-28.88L58.50-28.88Q60.76-31.15 63.77-32.41L63.77-32.41L63.77-32.41Q66.78-33.66 70.20-33.66L70.20-33.66L70.20-33.66Q71.78-33.66 73.32-33.27L73.32-33.27L73.32-33.27Q74.87-32.88 76.32-32.18L76.32-32.18L76.32-32.18Q77.77-31.48 79.09-30.55L79.09-30.55L79.09-30.55Q80.41-29.61 81.56-28.52L81.56-28.52L84.77-32.36L86.76-32.36ZM78.44-16.50L78.44-16.50L78.44-16.50Q78.44-18.19 77.79-19.78L77.79-19.78L77.79-19.78Q77.14-21.37 76.02-22.60L76.02-22.60L76.02-22.60Q74.90-23.83 73.40-24.57L73.40-24.57L73.40-24.57Q71.90-25.31 70.20-25.31L70.20-25.31L70.20-25.31Q68.51-25.31 67.01-24.73L67.01-24.73L67.01-24.73Q65.51-24.16 64.41-23.04L64.41-23.04L64.41-23.04Q63.30-21.92 62.67-20.27L62.67-20.27L62.67-20.27Q62.03-18.62 62.03-16.50L62.03-16.50L62.03-16.50Q62.03-14.38 62.67-12.73L62.67-12.73L62.67-12.73Q63.30-11.08 64.41-9.96L64.41-9.96L64.41-9.96Q65.51-8.84 67.01-8.26L67.01-8.26L67.01-8.26Q68.51-7.69 70.20-7.69L70.20-7.69L70.20-7.69Q71.90-7.69 73.40-8.43L73.40-8.43L73.40-8.43Q74.90-9.17 76.02-10.40L76.02-10.40L76.02-10.40Q77.14-11.63 77.79-13.21L77.79-13.21L77.79-13.21Q78.44-14.80 78.44-16.50ZM110.56 0L102.26 0L89.91-32.42L99.33-32.42L106.41-12.20L113.46-32.42L122.91-32.42L110.56 0ZM153.52-26.61L138.02-7.93L138.02-7.93Q138.50-7.78 138.99-7.73L138.99-7.73L138.99-7.73Q139.47-7.69 139.95-7.69L139.95-7.69L139.95-7.69Q141.17-7.69 142.29-8.02L142.29-8.02L142.29-8.02Q143.41-8.36 144.39-8.98L144.39-8.98L144.39-8.98Q145.37-9.60 146.15-10.49L146.15-10.49L146.15-10.49Q146.92-11.38 147.40-12.47L147.40-12.47L153.46-6.39L153.46-6.39Q152.31-4.75 150.81-3.45L150.81-3.45L150.81-3.45Q149.31-2.15 147.57-1.24L147.57-1.24L147.57-1.24Q145.83-0.33 143.90 0.14L143.90 0.14L143.90 0.14Q141.98 0.61 139.95 0.61L139.95 0.61L139.95 0.61Q136.53 0.61 133.52-0.67L133.52-0.67L133.52-0.67Q130.51-1.94 128.25-4.21L128.25-4.21L128.25-4.21Q126.00-6.48 124.70-9.61L124.70-9.61L124.70-9.61Q123.39-12.75 123.39-16.50L123.39-16.50L123.39-16.50Q123.39-20.34 124.70-23.52L124.70-23.52L124.70-23.52Q126.00-26.70 128.25-28.94L128.25-28.94L128.25-28.94Q130.51-31.18 133.52-32.42L133.52-32.42L133.52-32.42Q136.53-33.66 139.95-33.66L139.95-33.66L139.95-33.66Q141.98-33.66 143.92-33.18L143.92-33.18L143.92-33.18Q145.86-32.70 147.60-31.79L147.60-31.79L147.60-31.79Q149.34-30.88 150.85-29.56L150.85-29.56L150.85-29.56Q152.37-28.25 153.52-26.61L153.52-26.61ZM132.63-12.20L142.25-24.98L142.25-24.98Q141.68-25.19 141.12-25.25L141.12-25.25L141.12-25.25Q140.56-25.31 139.95-25.31L139.95-25.31L139.95-25.31Q138.26-25.31 136.76-24.69L136.76-24.69L136.76-24.69Q135.26-24.07 134.16-22.92L134.16-22.92L134.16-22.92Q133.05-21.77 132.42-20.15L132.42-20.15L132.42-20.15Q131.78-18.53 131.78-16.50L131.78-16.50L131.78-16.50Q131.78-16.04 131.83-15.47L131.83-15.47L131.83-15.47Q131.87-14.89 131.98-14.30L131.98-14.30L131.98-14.30Q132.08-13.71 132.23-13.17L132.23-13.17L132.23-13.17Q132.39-12.62 132.63-12.20L132.63-12.20ZM165.99-45.32L165.99 0L157.66 0L157.66-45.32L165.99-45.32ZM172.80-26.04L198.23-26.04L198.23-17.80L172.80-17.80L172.80-26.04ZM236.47-32.36L236.47 0L234.47 0L231.26-4.45L231.26-4.45Q230.08-3.39 228.76-2.47L228.76-2.47L228.76-2.47Q227.44-1.54 225.99-0.86L225.99-0.86L225.99-0.86Q224.54-0.18 223.01 0.21L223.01 0.21L223.01 0.21Q221.48 0.61 219.91 0.61L219.91 0.61L219.91 0.61Q216.49 0.61 213.47-0.54L213.47-0.54L213.47-0.54Q210.46-1.70 208.21-3.89L208.21-3.89L208.21-3.89Q205.95-6.08 204.65-9.26L204.65-9.26L204.65-9.26Q203.35-12.44 203.35-16.50L203.35-16.50L203.35-16.50Q203.35-20.28 204.65-23.45L204.65-23.45L204.65-23.45Q205.95-26.61 208.21-28.88L208.21-28.88L208.21-28.88Q210.46-31.15 213.47-32.41L213.47-32.41L213.47-32.41Q216.49-33.66 219.91-33.66L219.91-33.66L219.91-33.66Q221.48-33.66 223.02-33.27L223.02-33.27L223.02-33.27Q224.57-32.88 226.02-32.18L226.02-32.18L226.02-32.18Q227.47-31.48 228.79-30.55L228.79-30.55L228.79-30.55Q230.11-29.61 231.26-28.52L231.26-28.52L234.47-32.36L236.47-32.36ZM228.14-16.50L228.14-16.50L228.14-16.50Q228.14-18.19 227.49-19.78L227.49-19.78L227.49-19.78Q226.84-21.37 225.72-22.60L225.72-22.60L225.72-22.60Q224.60-23.83 223.10-24.57L223.10-24.57L223.10-24.57Q221.60-25.31 219.91-25.31L219.91-25.31L219.91-25.31Q218.21-25.31 216.71-24.73L216.71-24.73L216.71-24.73Q215.21-24.16 214.11-23.04L214.11-23.04L214.11-23.04Q213.00-21.92 212.37-20.27L212.37-20.27L212.37-20.27Q211.73-18.62 211.73-16.50L211.73-16.50L211.73-16.50Q211.73-14.38 212.37-12.73L212.37-12.73L212.37-12.73Q213.00-11.08 214.11-9.96L214.11-9.96L214.11-9.96Q215.21-8.84 216.71-8.26L216.71-8.26L216.71-8.26Q218.21-7.69 219.91-7.69L219.91-7.69L219.91-7.69Q221.60-7.69 223.10-8.43L223.10-8.43L223.10-8.43Q224.60-9.17 225.72-10.40L225.72-10.40L225.72-10.40Q226.84-11.63 227.49-13.21L227.49-13.21L227.49-13.21Q228.14-14.80 228.14-16.50ZM265.29 0L259.02 0L259.02 0Q256.02 0 253.39-1.14L253.39-1.14L253.39-1.14Q250.75-2.27 248.77-4.25L248.77-4.25L248.77-4.25Q246.79-6.24 245.65-8.87L245.65-8.87L245.65-8.87Q244.52-11.50 244.52-14.50L244.52-14.50L244.52-24.13L240.49-24.13L240.49-32.36L244.52-32.36L244.52-45.32L252.75-45.32L252.75-32.36L265.29-32.36L265.29-24.13L252.75-24.13L252.75-14.50L252.75-14.50Q252.75-13.20 253.24-12.06L253.24-12.06L253.24-12.06Q253.72-10.93 254.57-10.08L254.57-10.08L254.57-10.08Q255.42-9.23 256.57-8.73L256.57-8.73L256.57-8.73Q257.72-8.23 259.02-8.23L259.02-8.23L265.29-8.23L265.29 0ZM278.24-45.32L278.24 0L269.92 0L269.92-45.32L278.24-45.32ZM315.93-32.36L315.93 0L313.94 0L310.73-4.45L310.73-4.45Q309.55-3.39 308.23-2.47L308.23-2.47L308.23-2.47Q306.91-1.54 305.46-0.86L305.46-0.86L305.46-0.86Q304.01-0.18 302.48 0.21L302.48 0.21L302.48 0.21Q300.95 0.61 299.37 0.61L299.37 0.61L299.37 0.61Q295.95 0.61 292.94-0.54L292.94-0.54L292.94-0.54Q289.93-1.70 287.67-3.89L287.67-3.89L287.67-3.89Q285.42-6.08 284.12-9.26L284.12-9.26L284.12-9.26Q282.81-12.44 282.81-16.50L282.81-16.50L282.81-16.50Q282.81-20.28 284.12-23.45L284.12-23.45L284.12-23.45Q285.42-26.61 287.67-28.88L287.67-28.88L287.67-28.88Q289.93-31.15 292.94-32.41L292.94-32.41L292.94-32.41Q295.95-33.66 299.37-33.66L299.37-33.66L299.37-33.66Q300.95-33.66 302.49-33.27L302.49-33.27L302.49-33.27Q304.04-32.88 305.49-32.18L305.49-32.18L305.49-32.18Q306.94-31.48 308.26-30.55L308.26-30.55L308.26-30.55Q309.58-29.61 310.73-28.52L310.73-28.52L313.94-32.36L315.93-32.36ZM307.61-16.50L307.61-16.50L307.61-16.50Q307.61-18.19 306.96-19.78L306.96-19.78L306.96-19.78Q306.31-21.37 305.19-22.60L305.19-22.60L305.19-22.60Q304.07-23.83 302.57-24.57L302.57-24.57L302.57-24.57Q301.07-25.31 299.37-25.31L299.37-25.31L299.37-25.31Q297.68-25.31 296.18-24.73L296.18-24.73L296.18-24.73Q294.68-24.16 293.58-23.04L293.58-23.04L293.58-23.04Q292.47-21.92 291.84-20.27L291.84-20.27L291.84-20.27Q291.20-18.62 291.20-16.50L291.20-16.50L291.20-16.50Q291.20-14.38 291.84-12.73L291.84-12.73L291.84-12.73Q292.47-11.08 293.58-9.96L293.58-9.96L293.58-9.96Q294.68-8.84 296.18-8.26L296.18-8.26L296.18-8.26Q297.68-7.69 299.37-7.69L299.37-7.69L299.37-7.69Q301.07-7.69 302.57-8.43L302.57-8.43L302.57-8.43Q304.07-9.17 305.19-10.40L305.19-10.40L305.19-10.40Q306.31-11.63 306.96-13.21L306.96-13.21L306.96-13.21Q307.61-14.80 307.61-16.50ZM340.03 0L340.03 0L321.14 0L321.14-8.23L340.03-8.23L340.03-8.23Q340.88-8.23 341.48-8.84L341.48-8.84L341.48-8.84Q342.09-9.45 342.09-10.29L342.09-10.29L342.09-10.29Q342.09-11.17 341.48-11.44L341.48-11.44L341.48-11.44Q340.88-11.72 340.03-11.72L340.03-11.72L331.43-11.72L331.43-11.72Q329.28-11.72 327.41-12.53L327.41-12.53L327.41-12.53Q325.53-13.35 324.14-14.76L324.14-14.76L324.14-14.76Q322.75-16.17 321.94-18.04L321.94-18.04L321.94-18.04Q321.14-19.92 321.14-22.07L321.14-22.07L321.14-22.07Q321.14-24.22 321.94-26.10L321.94-26.10L321.94-26.10Q322.75-27.97 324.14-29.37L324.14-29.37L324.14-29.37Q325.53-30.76 327.41-31.56L327.41-31.56L327.41-31.56Q329.28-32.36 331.43-32.36L331.43-32.36L348.17-32.36L348.17-24.13L331.43-24.13L331.43-24.13Q330.59-24.13 329.98-23.52L329.98-23.52L329.98-23.52Q329.38-22.92 329.38-22.07L329.38-22.07L329.38-22.07Q329.38-21.19 329.98-20.57L329.98-20.57L329.98-20.57Q330.59-19.95 331.43-19.95L331.43-19.95L340.03-19.95L340.03-19.95Q342.15-19.95 344.03-19.24L344.03-19.24L344.03-19.24Q345.90-18.53 347.30-17.26L347.30-17.26L347.30-17.26Q348.69-15.98 349.51-14.20L349.51-14.20L349.51-14.20Q350.32-12.41 350.32-10.29L350.32-10.29L350.32-10.29Q350.32-8.14 349.51-6.28L349.51-6.28L349.51-6.28Q348.69-4.42 347.30-3.01L347.30-3.01L347.30-3.01Q345.90-1.60 344.03-0.80L344.03-0.80L344.03-0.80Q342.15 0 340.03 0Z" transform="matrix(1,0,0,1,-0.88,45.32)" fill="#030303"></path><g id="SvgjsG1202" transform="matrix(0.6123999999999999,0,0,0.6123999999999999,147.162,-71.65079999999999)" fill="#030303"><svg width="90" height="90"><path d="M45 0C20.2 0 0 20.2 0 45s20.2 45 45 45 45-20.2 45-45S69.8 0 45 0zm16.6 48.7H55l-10.3 14c-.2.3-.6.5-1 .5h-.2c-.4 0-.7-.2-1-.5-.2-.3-.3-.7-.2-1l3.5-13H35.7L32.6 53c-.2.3-.6.5-1 .5h-.2c-.4 0-.7-.2-1-.5-.2-.3-.3-.7-.2-1.1l2.3-6.9-2.4-6.9c-.1-.4 0-.8.2-1.1.2-.3.6-.5 1-.5h.2c.4 0 .8.2 1 .5l3.1 4.3h10.1l-3.5-13c-.1-.4 0-.7.2-1 .2-.3.6-.5 1-.5h.2c.4 0 .8.2 1 .5l10.3 14h6.6c1.8 0 7.3 1.8 7.3 3.6s-5.4 3.8-7.2 3.8z"></path></svg></g></g></svg>