<svg xmlns="http://www.w3.org/2000/svg" xmlns:xlink="http://www.w3.org/1999/xlink" xmlns:svgjs="http://svgjs.com/svgjs" version="1.1" width="500" height="500" id="logo"><defs id="SvgjsDefs2836"/><rect id="SvgjsRect2839" width="500" height="500" fill="transparent"/><g id="SvgjsG2840" transform="matrix(0.7055569666694891,0,0,0.7055569666694891,124.99999999999997,227.3163435215759)"><rect id="SvgjsRect2837" width="425.19599999999997" height="128.6" stroke="#ffffff" stroke-width="3" fill="transparent" x="-35.43299999999999" y="-32.15" rx="16.075" ry="16.075"/><path id="SvgjsPath2838" d="M37.70 0.12L37.70 0.12L37.70 0.12Q34.22 0.12 32.46-2.14L32.46-2.14L32.46-2.14Q30.69-4.40 30.07-10.60L30.07-10.60L30.07-10.60Q29.70-13.83 29.33-18.97L29.33-18.97L29.33-18.97Q24.99-17.67 20.58-16.24L20.58-16.24L18.48-10.42L18.48-10.42Q17.86-8.74 17.61-8.03L17.61-8.03L17.61-8.03Q17.36-7.32 16.71-5.89L16.71-5.89L16.71-5.89Q16.06-4.46 15.59-3.81L15.59-3.81L15.59-3.81Q15.13-3.16 14.29-2.17L14.29-2.17L14.29-2.17Q13.45-1.18 12.59-0.74L12.59-0.74L12.59-0.74Q10.35 0.37 7.81 0.37L7.81 0.37L7.81 0.37Q5.27 0.37 3.69-1.46L3.69-1.46L3.69-1.46Q2.11-3.29 2.11-5.95L2.11-5.95L2.11-5.95Q2.11-6.70 2.23-7.50L2.23-7.50L2.23-7.50Q3.04-13.45 14.45-18.35L14.45-18.35L14.45-18.35Q17.67-26.60 25.17-46.13L25.17-46.13L25.17-46.13Q27.16-47.24 30.19-47.24L30.19-47.24L30.19-47.24Q30.88-47.24 31.50-47.24L31.50-47.24L31.50-47.24Q32.12-47.24 33.02-47.24L33.02-47.24L33.02-47.24Q33.91-47.24 35.28-46.87L35.28-46.87L35.28-46.87Q35.34-43.96 38.13-10.73L38.13-10.73L38.13-10.73Q38.38-7.94 38.81-7.10L38.81-7.10L38.81-7.10Q39.25-6.26 40.30-6.26L40.30-6.26L40.30-6.26Q42.04-6.26 44.92-8.62L44.92-8.62L44.92-8.62Q47.80-10.97 50.10-14.51L50.10-14.51L51.83-10.29L50.34-8.31L50.34-8.31Q43.83 0.12 37.70 0.12ZM28.89-23.56L27.84-36.46L22.44-21.39L22.44-21.39Q26.78-22.88 28.89-23.56L28.89-23.56ZM12.28-12.96L12.28-12.96Q6.51-10.04 6.51-7.25L6.51-7.25L6.51-7.25Q6.51-5.27 8.00-5.27L8.00-5.27L8.00-5.27Q9.11-5.27 9.80-6.88L9.80-6.88L9.80-6.88Q10.60-8.62 12.28-12.96L12.28-12.96ZM72.17-18.97L72.17-18.97L72.17-18.97Q77.07-15.38 77.07-10.48L77.07-10.48L77.07-10.48Q77.07-5.58 73.22-2.60L73.22-2.60L73.22-2.60Q69.38 0.37 63.55 0.37L63.55 0.37L63.55 0.37Q59.77 0.37 57.26-1.52L57.26-1.52L57.26-1.52Q54.75-3.41 54.75-6.20L54.75-6.20L54.75-6.20Q54.75-8.99 56.61-10.63L56.61-10.63L56.61-10.63Q58.47-12.28 61.26-12.65L61.26-12.65L61.26-12.65Q59.95-10.79 59.95-9.08L59.95-9.08L59.95-9.08Q59.95-7.38 61.13-6.32L61.13-6.32L61.13-6.32Q62.31-5.27 64.11-5.27L64.11-5.27L64.11-5.27Q65.91-5.27 67.08-6.60L67.08-6.60L67.08-6.60Q68.26-7.94 68.26-9.67L68.26-9.67L68.26-9.67Q68.26-12.52 65.60-14.76L65.60-14.76L65.60-14.76Q63.98-16.06 62.12-17.20L62.12-17.20L62.12-17.20Q60.26-18.35 60.14-18.41L60.14-18.41L60.14-18.41Q59.89-18.60 59.64-18.72L59.64-18.72L59.64-18.72Q58.53-17.42 56.42-15.16L56.42-15.16L56.42-15.16Q54.31-12.90 53.07-11.53L53.07-11.53L53.07-11.53Q49.60-7.75 49.17-5.21L49.17-5.21L49.17-5.21Q49.04-4.71 49.04-3.32L49.04-3.32L49.04-3.32Q49.04-1.92 49.88-0.43L49.88-0.43L49.88-0.43Q50.72 1.05 51.89 1.80L51.89 1.80L51.89 1.80Q53.07 2.54 54.22 3.01L54.22 3.01L54.22 3.01Q55.37 3.47 56.20 3.66L56.20 3.66L56.20 3.66Q57.04 3.84 57.04 3.91L57.04 3.91L57.04 3.91Q57.04 4.34 55.68 4.90L55.68 4.90L55.68 4.90Q53.13 5.83 50.38 5.83L50.38 5.83L50.38 5.83Q47.62 5.83 45.01 3.84L45.01 3.84L45.01 3.84Q41.48 1.12 41.48-3.41L41.48-3.41L41.48-3.41Q41.48-6.20 42.90-8.93L42.90-8.93L42.90-8.93Q45.45-13.76 54.81-22.20L54.81-22.20L54.81-22.20Q52.51-24.49 52.51-27.09L52.51-27.09L52.51-27.09Q52.51-29.70 54.47-31.50L54.47-31.50L54.47-31.50Q56.42-33.29 59.09-33.29L59.09-33.29L59.09-33.29Q61.50-33.29 63.30-31.37L63.30-31.37L63.30-31.37Q64.48-30.07 64.48-28.09L64.48-28.09L64.48-28.09Q64.48-26.10 63.18-23.62L63.18-23.62L63.18-23.62Q69.81-20.65 72.17-18.97ZM58.71-25.98L58.71-25.98L58.71-25.98Q60.20-27.53 60.20-28.21L60.20-28.21L60.20-28.21Q60.20-29.76 58.84-29.88L58.84-29.88L58.84-29.88Q57.29-29.88 57.29-28.15L57.29-28.15L57.29-28.15Q57.29-27.09 58.71-25.98ZM95.17-7.07L95.17-7.07L96.66-20.77L96.66-20.77Q96.66-22.44 95.79-23.56L95.79-23.56L95.79-23.56Q94.92-24.68 93-24.68L93-24.68L93-24.68Q91.08-24.68 89.75-23.16L89.75-23.16L89.75-23.16Q88.41-21.64 87.79-19.16L87.79-19.16L87.79-19.16Q87.36-15.62 86.49-8.83L86.49-8.83L86.49-8.83Q85.62-2.05 85.37 0L85.37 0L77.13 0L77.13 0Q81.59-38.01 82.52-46.69L82.52-46.69L82.52-46.69Q83.82-47.18 86.06-47.18L86.06-47.18L86.06-47.18Q90.89-47.18 90.89-44.33L90.89-44.33L90.89-43.96L90.89-43.96Q89.84-34.22 88.66-26.85L88.66-26.85L88.66-26.85Q91.95-29.82 96.10-29.82L96.10-29.82L96.10-29.82Q100.25-29.82 102.67-27.71L102.67-27.71L102.67-27.71Q105.09-25.61 105.09-22.38L105.09-22.38L105.09-22.38Q105.09-21.51 104.72-19.16L104.72-19.16L104.72-19.16Q103.29-9.86 103.29-8.25L103.29-8.25L103.29-8.25Q103.29-5.33 105.21-5.33L105.21-5.33L105.21-5.33Q106.83-5.33 108.66-7.47L108.66-7.47L108.66-7.47Q110.48-9.61 111.60-14.07L111.60-14.07L111.60-14.07Q113.71-11.84 114.14-10.54L114.14-10.54L114.14-10.54Q110.92 0.25 102.73 0.25L102.73 0.25L102.73 0.25Q98.89 0.25 97.03-2.11L97.03-2.11L97.03-2.11Q95.17-4.46 95.17-7.07ZM123.07-43.15L123.07-43.15L123.07-43.15Q123.07-42.78 121.40-29.82L121.40-29.82L130.51-29.82L130.51-25.05L120.78-25.05L120.59-23.50L120.59-23.50Q127.84-17.42 127.84-10.23L127.84-10.23L127.84-10.23Q127.84-4.59 124.96-2.11L124.96-2.11L124.96-2.11Q122.08 0.37 118.05 0.37L118.05 0.37L118.05 0.37Q114.02 0.37 112.16-1.77L112.16-1.77L112.16-1.77Q110.30-3.91 110.30-6.94L110.30-6.94L110.30-6.94Q110.30-7.63 110.42-8.43L110.42-8.43L112.34-24.92L112.10-25.05L107.07-25.05L107.07-25.05Q107.01-25.67 107.01-27.06L107.01-27.06L107.01-27.06Q107.01-28.46 107.57-29.82L107.57-29.82L112.90-29.82L114.89-46.69L114.89-46.69Q116.19-47.18 118.36-47.18L118.36-47.18L118.36-47.18Q123.07-47.18 123.07-43.15ZM123.69-10.29L123.69-10.29L123.69-10.29Q123.69-14.57 119.97-18.72L119.97-18.72L119.97-18.72Q118.85-9.49 118.85-8.06L118.85-8.06L118.85-8.06Q118.85-5.27 120.65-5.27L120.65-5.27L120.65-5.27Q121.95-5.27 122.82-6.48L122.82-6.48L122.82-6.48Q123.69-7.69 123.69-10.29ZM146.63-29.82L146.63-29.82L146.63-29.82Q152.33-29.82 156.15-26.16L156.15-26.16L156.15-26.16Q159.96-22.51 159.96-17.24L159.96-17.24L159.96-17.24Q159.96-9.24 155.28-4.43L155.28-4.43L155.28-4.43Q150.60 0.37 143.96 0.37L143.96 0.37L143.96 0.37Q137.33 0.37 133.46-3.41L133.46-3.41L133.46-3.41Q129.58-7.19 129.58-12.77L129.58-12.77L129.58-12.77Q129.58-20.58 134.35-25.17L134.35-25.17L134.35-25.17Q139.19-29.82 146.63-29.82ZM145.42-24.80L145.42-24.80L145.42-24.80Q142.48-24.80 140.49-21.45L140.49-21.45L140.49-21.45Q138.51-18.10 138.32-13.02L138.32-13.02L138.32-13.02Q138.32-9.42 139.78-7.07L139.78-7.07L139.78-7.07Q141.24-4.71 144.21-4.71L144.21-4.71L144.21-4.71Q147.19-4.71 149.20-8.00L149.20-8.00L149.20-8.00Q151.22-11.28 151.22-15.50L151.22-15.50L151.22-15.50Q151.22-19.72 149.79-22.20L149.79-22.20L149.79-22.20Q148.37-24.80 145.42-24.80ZM180.30-6.94L180.30-6.94L181.78-20.77L181.78-20.77Q181.78-22.44 180.92-23.56L180.92-23.56L180.92-23.56Q180.05-24.68 178.03-24.68L178.03-24.68L178.03-24.68Q176.02-24.68 174.62-22.91L174.62-22.91L174.62-22.91Q173.23-21.14 172.86-18.48L172.86-18.48L172.86-18.48Q170.62-1.49 170.50 0L170.50 0L162.13 0L165.54-29.20L165.54-29.20Q168.14-29.88 169.51-29.88L169.51-29.88L169.51-29.88Q173.66-29.88 173.85-26.85L173.85-26.85L173.85-26.85Q176.89-29.82 181.13-29.82L181.13-29.82L181.13-29.82Q185.38-29.82 187.80-27.71L187.80-27.71L187.80-27.71Q190.22-25.61 190.22-22.38L190.22-22.38L190.22-22.38Q190.22-21.51 189.84-19.10L189.84-19.10L189.84-19.10Q188.42-9.67 188.42-8.12L188.42-8.12L188.42-8.12Q188.42-5.27 190.34-5.27L190.34-5.27L190.34-5.27Q194.56-5.27 196.73-14.07L196.73-14.07L196.73-14.07Q198.83-11.84 199.27-10.54L199.27-10.54L199.27-10.54Q195.98 0.37 187.86 0.37L187.86 0.37L187.86 0.37Q184.02 0.37 182.16-1.98L182.16-1.98L182.16-1.98Q180.30-4.34 180.30-6.94ZM236.96-31.25L232.31-31.25L232.31-31.25Q234.17-34.04 234.17-36.46L234.17-36.46L234.17-36.46Q234.17-38.87 232.81-40.30L232.81-40.30L232.81-40.30Q231.45-41.73 229.21-41.73L229.21-41.73L229.21-41.73Q226.98-41.73 225.62-40.64L225.62-40.64L225.62-40.64Q224.25-39.56 224.25-37.23L224.25-37.23L224.25-37.23Q224.25-34.91 227.48-28.89L227.48-28.89L227.48-28.89Q230.70-22.88 231.57-21.14L231.57-21.14L231.57-21.14Q233.93-16.43 233.93-12.03L233.93-12.03L233.93-12.03Q233.93-6.51 229.93-3.07L229.93-3.07L229.93-3.07Q225.93 0.37 220.50 0.37L220.50 0.37L220.50 0.37Q215.08 0.37 211.98-3.01L211.98-3.01L211.98-3.01Q208.88-6.39 208.88-10.91L208.88-10.91L208.88-10.91Q208.88-19.28 219.23-24.74L219.23-24.74L219.23-24.74Q215.02-33.05 215.02-36.33L215.02-36.33L215.02-36.33Q215.02-40.92 218.71-44.11L218.71-44.11L218.71-44.11Q222.39-47.31 227.76-47.31L227.76-47.31L227.76-47.31Q233.12-47.31 235.97-44.58L235.97-44.58L235.97-44.58Q238.82-41.85 238.82-37.63L238.82-37.63L238.82-37.63Q238.82-34.84 236.96-31.25L236.96-31.25ZM216.07-7.07L216.07-7.07Q217.74-5.27 220.13-5.27L220.13-5.27L220.13-5.27Q222.52-5.27 223.85-6.67L223.85-6.67L223.85-6.67Q225.18-8.06 225.18-10.79L225.18-10.79L225.18-10.79Q225.18-13.27 223.26-16.86L223.26-16.86L223.26-16.86Q223.01-17.36 222.33-18.69L222.33-18.69L222.33-18.69Q221.65-20.03 221.34-20.58L221.34-20.58L221.34-20.58Q214.40-16.99 214.40-11.53L214.40-11.53L214.40-11.53Q214.40-8.74 216.07-7.07L216.07-7.07ZM245.52-29.88L245.52-29.88L245.52-29.88Q249.55-29.88 250.23-27.84L250.23-27.84L250.23-27.84Q253.15-29.88 257.61-29.88L257.61-29.88L257.61-29.88Q262.07-29.88 265.30-26.23L265.30-26.23L265.30-26.23Q268.52-22.57 268.52-17.67L268.52-17.67L268.52-17.67Q268.52-16.99 268.46-16.24L268.46-16.24L268.46-16.24Q267.78-8.12 263.00-3.88L263.00-3.88L263.00-3.88Q258.23 0.37 250.54 0.37L250.54 0.37L250.54 0.37Q248.81 0.37 246.76-0.06L246.76-0.06L244.78 16.99L236.65 16.99L236.65 16.99Q240.62-17.17 241.99-29.39L241.99-29.39L241.99-29.39Q243.29-29.88 245.52-29.88ZM259.78-17.24L259.78-17.24L259.78-17.24Q259.78-19.96 258.54-22.07L258.54-22.07L258.54-22.07Q257.30-24.18 254.70-24.18L254.70-24.18L254.70-24.18Q251.16-24.18 249.30-19.59L249.30-19.59L249.30-19.59Q248.06-10.42 247.88-8.93L247.88-8.93L247.88-8.93Q247.81-7.07 249.05-6.14L249.05-6.14L249.05-6.14Q250.29-5.21 252.09-5.21L252.09-5.21L252.09-5.21Q255.25-5.21 257.30-8.06L257.30-8.06L257.30-8.06Q259.78-11.59 259.78-17.24ZM276.21-45.66L276.21-45.66L276.21-45.66Q277.64-47.12 279.68-47.12L279.68-47.12L279.68-47.12Q281.73-47.12 283.19-45.66L283.19-45.66L283.19-45.66Q284.64-44.21 284.64-42.16L284.64-42.16L284.64-42.16Q284.64-40.11 283.19-38.69L283.19-38.69L283.19-38.69Q281.73-37.26 279.68-37.26L279.68-37.26L279.68-37.26Q277.64-37.26 276.21-38.69L276.21-38.69L276.21-38.69Q274.78-40.11 274.78-42.16L274.78-42.16L274.78-42.16Q274.78-44.21 276.21-45.66ZM273.67-27.47L273.67-27.47Q274.29-28.58 276.02-29.17L276.02-29.17L276.02-29.17Q277.76-29.76 279.46-29.76L279.46-29.76L279.46-29.76Q281.17-29.76 282.47-29.33L282.47-29.33L282.47-29.33Q280.05-10.66 280.05-10.48L280.05-10.48L280.05-10.48Q279.74-9.24 279.74-8.40L279.74-8.40L279.74-8.40Q279.74-7.56 279.87-6.94L279.87-6.94L279.87-6.94Q280.12-5.33 282.13-5.33L282.13-5.33L282.13-5.33Q284.15-5.33 285.85-7.97L285.85-7.97L285.85-7.97Q287.56-10.60 288.42-13.95L288.42-13.95L288.42-13.95Q288.86-13.70 289.79-12.46L289.79-12.46L289.79-12.46Q290.72-11.22 290.90-10.60L290.90-10.60L290.90-10.60Q289.66-5.64 286.69-2.60L286.69-2.60L286.69-2.60Q283.71 0.43 279.56 0.43L279.56 0.43L279.56 0.43Q275.40 0.43 273.39-1.61L273.39-1.61L273.39-1.61Q271.37-3.66 271.37-6.88L271.37-6.88L271.37-6.88Q271.37-7.56 271.44-8.31L271.44-8.31L273.67-27.47ZM303.49-6.94L303.49-6.94L304.98-20.77L304.98-20.77Q304.98-22.44 304.11-23.56L304.11-23.56L304.11-23.56Q303.24-24.68 301.23-24.68L301.23-24.68L301.23-24.68Q299.21-24.68 297.82-22.91L297.82-22.91L297.82-22.91Q296.42-21.14 296.05-18.48L296.05-18.48L296.05-18.48Q293.82-1.49 293.69 0L293.69 0L285.32 0L288.73-29.20L288.73-29.20Q291.34-29.88 292.70-29.88L292.70-29.88L292.70-29.88Q296.86-29.88 297.04-26.85L297.04-26.85L297.04-26.85Q300.08-29.82 304.33-29.82L304.33-29.82L304.33-29.82Q308.57-29.82 310.99-27.71L310.99-27.71L310.99-27.71Q313.41-25.61 313.41-22.38L313.41-22.38L313.41-22.38Q313.41-21.51 313.04-19.10L313.04-19.10L313.04-19.10Q311.61-9.67 311.61-8.12L311.61-8.12L311.61-8.12Q311.61-5.27 313.53-5.27L313.53-5.27L313.53-5.27Q317.75-5.27 319.92-14.07L319.92-14.07L319.92-14.07Q322.03-11.84 322.46-10.54L322.46-10.54L322.46-10.54Q319.18 0.37 311.05 0.37L311.05 0.37L311.05 0.37Q307.21 0.37 305.35-1.98L305.35-1.98L305.35-1.98Q303.49-4.34 303.49-6.94ZM345.59 0.31L345.59 0.31L345.59 0.31Q339.88 0.31 338.02-3.66L338.02-3.66L338.02-3.66Q334.80 0.37 329.75 0.37L329.75 0.37L329.75 0.37Q324.69 0.37 321.25-3.04L321.25-3.04L321.25-3.04Q317.81-6.45 317.81-12.03L317.81-12.03L317.81-12.03Q317.81-20.15 322.59-24.99L322.59-24.99L322.59-24.99Q327.36-29.82 334.68-29.82L334.68-29.82L334.68-29.82Q334.86-29.82 335.05-29.82L335.05-29.82L335.05-29.82Q338.15-29.82 340.75-28.77L340.75-28.77L340.75-28.77Q342.43-29.82 344.81-29.82L344.81-29.82L344.81-29.82Q347.20-29.82 348.25-29.20L348.25-29.20L348.25-29.20Q347.70-24.61 347.08-20.18L347.08-20.18L347.08-20.18Q346.46-15.75 346.21-13.89L346.21-13.89L346.21-13.89Q345.65-9.67 345.65-7.81L345.65-7.81L345.65-7.81Q345.65-5.33 347.63-5.33L347.63-5.33L347.63-5.33Q349.18-5.33 350.92-7.41L350.92-7.41L350.92-7.41Q352.66-9.49 353.96-13.95L353.96-13.95L353.96-13.95Q355.76-12.34 356.44-10.35L356.44-10.35L356.44-10.35Q354.64-4.46 351.60-2.08L351.60-2.08L351.60-2.08Q348.56 0.31 345.59 0.31ZM335.61-24.99L335.61-24.99L335.61-24.99Q331.64-24.99 329.31-21.98L329.31-21.98L329.31-21.98Q326.99-18.97 326.55-13.02L326.55-13.02L326.55-13.02Q326.49-12.46 326.49-11.97L326.49-11.97L326.49-11.97Q326.49-8.93 327.95-7.13L327.95-7.13L327.95-7.13Q329.41-5.33 331.70-5.33L331.70-5.33L331.70-5.33Q335.61-5.33 337.59-10.85L337.59-10.85L339.08-24.24L339.08-24.24Q337.28-24.99 335.61-24.99Z" transform="matrix(1,0,0,1,-2.11,47.31)" fill="#ffffff"/></g></svg>